<?xml version="1.0" encoding="UTF-8"?>
<svg width="717.73pt" height="717pt" version="1.0" viewBox="0 0 717.73 717" xmlns="http://www.w3.org/2000/svg">
<g transform="matrix(.1 0 0 -.1 -148.26 1171)">
<path d="m8410.9 9983.1c-1.749-5.63 11.49-23.139 39.99-51.66 23.001-22.017 39.003-44.024 37.002-51.03-7.999-21.015-91.992-10.008-136.99 19.014-59.001 37.027-110.01 58.043-110.01 45.033 0-6.004 7.001-13.02 15-16.023 33-13.009 12.009-24.012-46.992-24.012-84 0-65.994-14.01 55.005-45.033 120-30.023 123.99-32.025 188.99-101.08 90-94.071 101.99-154.12 42.993-224.17-18.999-23.017-34.995-44.025-34.995-47.027 0-10.007 33.001 8.008 101 52.041 67 45.034 83.994 70.044 72.993 111.08-3 12.009 1.005 26.022 10.005 33.027 21 18.014 19.998 34.033-3.003 62.054-12.999 16.012-16.989 34.02-13.989 54.035 3.999 27.02-1.998 35.027-63.999 86.065-38.001 31.023-84.008 66.053-103.01 78.062-31.5 19.014-48.246 25.258-49.995 19.629zm-378.25-692.26c-6.249-3.628 18.249-14.882 75.249-32.896 66-21.016 118-64.054 134-111.09 11.001-35.027 9.993-38.025-17.007-61.043-27-23.016-32.004-24.021-119-18.017-81.999 6.005-87.99 6.007-69.99-8.004 11.001-9.006 24.999-16.008 30-16.008 6 0 15.994-4.012 23.994-9.015 12-8.005 7.998-15.003-18.003-36.019-16.999-15.011-29.997-30.029-26.997-32.031 3-3.002 31.995 4.001 64.995 16.008 65.001 22.018 178.01 28.022 211.01 11.01 48-26.019 51.99-132.1 9.99-232.18-16.999-39.028-27.99-73.05-24.99-76.053 8.001-8.005 92.993 87.073 121.99 137.11 25.001 42.032 32.007 99.066 21.006 186.13-2.001 14.01 3.996 21.015 19.995 23.015 30 5.004 28.005 16.016-8.994 44.037-17.001 13.011-60.009 51.045-95.01 85.07-76.999 76.057-116.99 97.07-222.99 117.08-66 12.509-103 16.513-109.25 12.886zm-871.76-581.31c0-2.001 18.004-23.024 40.005-47.042 78-85.064 102-175.13 56.997-217.16-60-57.043-168.99-69.047-301.99-35.021-62.001 16.013-99 17.009-330 12.006-241-6.005-366.01-18.012-500.01-49.036-247-56.041-347-91.064-525-181.13-105-53.039-326.99-194.15-410.99-261.2-19-15.011-59-46.039-90-70.058-54-42.031-160-135.1-282-248.18-33-30.023-63.012-56.035-68.012-58.037-10-4.0028-3.991-9.0136-245.99 193.14-364 303.23-573 450.35-801 564.43-75 37.029-170.99 80.055-211.99 95.066-41 15.012-84.009 32.027-95.009 37.03-22 10.009-179.99 51.038-264.99 68.049-95 19.016-140.01 23.011-335.01 28.015-488 13.009-800-85.064-1020-319.24-95-101.08-123-142.11-185-270.2-94.995-198.15-130-403.3-94.996-567.42 68-323.24 262-588.44 530-723.55 354-179.13 1011-166.12 1571 32.031 379 134.1 620.01 287.21 1007 638.48l147.99 134.1 92.006-89.071c297-288.22 483-424.32 777-567.42 146-71.053 198-93.077 330-137.11 256-85.064 398-109.08 645-109.08 208 0 342.99 22.023 503.99 81.067 78 29.022 91.008 37.033 84.009 55.046-5.001 13.01-15.006 14.005-51.006 9.0008-24-4.0028-51.009-9.0038-58.008-12.006-29.001-11.008-12 18.014 26.001 45.034 50 34.026 51.003 46.024 3.003 25.009-60-25.019-183.99-60.044-279.99-79.058-110-23.017-464-26.01-558-5.9955-262 57.043-474.01 134.09-766.01 279.2-170 85.064-287 160.13-421 272.21-112 94.071-278 258.18-278 276.2 0 6.0045 32 38.03 71.001 71.054 38.999 32.024 80.006 68.051 92.006 79.058 33 31.024 194 164.12 267 221.17 92 73.055 224 154.12 357 219.17 313 154.12 615 225.16 956 226.17 86 0 157 3.001 157 8.004 0 8.006-103 31.019-146 31.019-62 1.002 2.992 18.019 110.99 29.026 141 14.011 247 14.016 280-0.997 31.999-14.009 32.007-21.023-1.992-39.038-61.001-30.022-103.01-60.042-103.01-72.051 0-8.0052 2.997-9.002 7.998-0.997 3.999 6.005 47.002 23.012 97.002 39.024 81 26.019 93.996 27.028 143 17.019 52.998-11.007 122.01-46.04 122.01-62.053 0-4.0028-20.001-24.007-45-44.022-46.001-38.029-100-117.09-93.003-137.11 3-8.0056 8.998-7.0058 18.999 4.002 33.999 34.026 128 85.064 195 105.08 93.999 30.023 108 41.032 106 86.065-1 35.027 0.01 37.032 43.008 48.039 24.999 7.007 45 15.015 45 18.017s-18.005 17.013-40.005 30.022c-46.001 29.022-57.002 55.035-41.001 103.07 6 19.015 8.994 41.037 4.995 51.044-3 9.007-51.989 49.037-107.99 90.068-89.001 64.048-136.01 93.072-136.01 82.063zm-4275.7-381.42c107.25-3.126 216.25-10.371 265.75-19.878 537-101.08 970-289.23 1295-563.44 110-92.069 255-233.16 255-247.17 0-16.012-184.99-202.15-279.99-281.21-199-166.12-437.01-303.23-665.01-382.29-326-113.08-766.99-142.1-1172-76.053-373 60.045-624 209.16-741 439.33-48 96.072-63.994 166.12-68.995 305.22-6 162.12 8.002 235.18 67.002 355.27 113 229.17 412 405.3 789 465.35 42.5 7.006 148 7.994 255.25 4.867zm5486.7-136.98c-6-17.012-22.995-47.022-38.994-67.037-24.999-33.025-26.997-43.038-26.997-126.1 0-88.066-0.01-90.075-28.008-103.08-21.999-11.008-28-20.006-26.001-40.021 2.001-15.011-6.999-43.039-18.999-62.054-12-19.014-28.998-60.045-37.998-90.068-9-30.023-21.999-63.036-30-74.045-29-42.032-11-47.046 60-16.023 32.001 13.01 56.004 33.027 78.003 67.052 45.999 66.05 76.992 93.073 106.99 93.073 15 0 68.004-21.011 119-46.031 52.001-25.019 95.999-44.034 97.998-41.032 3 2.0017-10.995 16.008-30.996 31.019-42 33.025-38.004 46.031 15.996 46.031 55.001 0 41.007 14.014-27.993 29.026-115 24.018-142.01 33.027-148.01 52.041-3.999 10.008-6.993 78.055-8.994 151.11-2 73.055-8 152.12-15 175.14-15 55.042-26.004 61.037-40.005 21.007zm-761-787.58c0-16.012-6.996-65.051-15.996-108.08-9-43.032-21.993-113.09-27.993-155.13-6.999-43.033-14.007-79.054-17.007-80.055-2-2.001-12.993-8.0093-23.994-14.014-12.999-7.0051-20.997-24.016-22.998-49.036-2.001-21.016-10.002-44.036-18.003-52.041-8.001-9.0068-33-43.024-56.001-77.05-56.001-81.061-91.008-119.09-133.01-142.11-19-10.007-34.995-22.017-34.995-26.021 0-14.01 92.994-8.0078 140 8.004 53.999 19.015 94.014 48.038 173.01 127.1 99.999 100.08 182.99 102.08 365 6.0105 50.001-27.02 91.992-44.031 91.992-38.027 0 14.011-86.994 97.062-110 104.07-11 4.0035-19.995 11.015-19.995 17.02 0 7.0058 26.991 9.006 84.99 4.002 47.001-4.0028 85.005-5.01 85.005-2.0085 0 20.015-127 62.057-231.01 76.068-45.999 6.0046-93.993 18.014-106.99 26.021-21.999 14.011-23.007 20.014-17.007 79.058 6 57.043 3.009 74.05-35.991 189.14-42.999 124.09-69.009 165.13-69.009 107.09z" fill="#d4aa00" stroke-width="7.5028"/>
<rect transform="scale(1,-1)" x="13682" y="-12372" width="7231.7" height="5866.1" opacity="0" stroke-width="6.0286"/>
</g>
<rect x="1219.9" y="-66.187" width="741.57" height="514.37" opacity="0" stroke-width=".75"/>
</svg>
